# xmcd
#
# Track frame offsets: 
#        150
#        14707
#        26667
#        37515
#        48890
#        70049
#        82719
#        100514
#        110431
#        123461
#        135700
#        144159
#        152578
#        165117
#
# Disc length: 2357 seconds
#
# Revision: 4
# Processed by: cddbd v1.5.2PL0 Copyright (c) Steve Scherf et al.
# Submitted via: ExactAudioCopy v0.95b4
#
DISCID=9809330e
DTITLE=Various Artist - Greatest Country Hits - CD 1
DYEAR=2008
DGENRE=Country
TTITLE0=John Denver - Take me home Country roaads
TTITLE1=Tammy Wynette - Stand by your man
TTITLE2=The Everly Brothers - Cathy's clown
TTITLE3=Roy Orbison - Blue bayou
TTITLE4=Olivia Newton-John - If not for you
TTITLE5=Lee Hazlewood - The boots are made for walking
TTITLE6=Bobby Goldsboro - Honey
TTITLE7=Willie Nelson - Healing hands of time
TTITLE8=Hank Williams - Jambalaya
TTITLE9=Patsy Cline - Crazy
TTITLE10=Roger Miller - England swings
TTITLE11=Lorne Greene - Bonanza
TTITLE12=Billy Joe Royal - Raindrops keep fallin' on my head
TTITLE13=Frankie Laine - High noon
EXTD=YEAR: 2009
EXTT0=
EXTT1=
EXTT2=
EXTT3=
EXTT4=
EXTT5=
EXTT6=
EXTT7=
EXTT8=
EXTT9=
EXTT10=
EXTT11=
EXTT12=
EXTT13=
PLAYORDER=
